<?xml version="1.0" encoding="utf-8"?>
<!-- Generator: Adobe Illustrator 23.0.0, SVG Export Plug-In . SVG Version: 6.00 Build 0)  -->
<svg version="1.1" id="Capa_1" xmlns="http://www.w3.org/2000/svg" xmlns:xlink="http://www.w3.org/1999/xlink" x="0px" y="0px"
	 viewBox="0 0 64 64" style="enable-background:new 0 0 64 64;" xml:space="preserve">
<style type="text/css">
	.st0{fill:#FFFFFF;}
</style>
<title>ico_emprendedores</title>
<path class="st0" d="M61,1H3C1.3,1,0,2.3,0,4v44c0,0.6,0.4,1,1,1h22.8l-1.6,8H20c-0.6,0-1,0.4-1,1v3h-2v2h30v-2h-2v-3
	c0-0.6-0.4-1-1-1h-2.2l-1.6-8H63c0.6,0,1-0.4,1-1V4C64,2.3,62.7,1,61,1z M41,59h2v2H21v-2H41z M24.2,57l1.6-8h12.4l1.6,8H24.2z
	 M62,47H2v-9h60V47z M48,10h-8c-0.6,0-1,0.4-1,1v9h2v-8h6v4h-4v2h4v5h-4v2h4v5h-4v2h4v4h-6v-8h-2v8h-4v-5c0-4.1,5-5,5.2-5
	c0.1,0,0.2-0.1,0.3-0.1c0.5-0.3,0.6-0.9,0.3-1.4l-9-15c-0.1-0.1-0.2-0.2-0.3-0.3c-0.4-0.3-1.1-0.2-1.4,0.2c0,0,0,0,0,0.1l-9,15
	c-0.1,0.1-0.1,0.2-0.1,0.3c-0.1,0.5,0.3,1.1,0.8,1.2c0,0,0,0,0,0c0.2,0,5.2,0.9,5.2,5v5h-4v-8h-2v8h-1V18h1v2h2v-3
	c0-0.1,0-0.3-0.1-0.4l-3-7c-0.1-0.2-0.3-0.4-0.5-0.5c-0.5-0.2-1.1,0-1.3,0.5l-3,7C15,16.7,15,16.9,15,17v19H7V8h50v28h-8V11
	C49,10.4,48.6,10,48,10z M29,33v-1h4v1H29z M33,35v1h-4v-1H33z M28.9,30c-0.5-3.2-3.2-4.9-5.4-5.6L30,13.6V22h2v-8.4l6.5,10.8
	c-2.2,0.7-4.9,2.5-5.4,5.6H28.9z M17.5,16l1.5-3.5l1.5,3.5H17.5z M18,18v18h-1V18H18z M62,36h-3V7c0-0.6-0.4-1-1-1H6
	C5.4,6,5,6.4,5,7v29H2V4c0-0.6,0.4-1,1-1h58c0.6,0,1,0.4,1,1V36z"/>
</svg>
