<?xml version="1.0" encoding="utf-8"?>
<!-- Generator: Adobe Illustrator 22.1.0, SVG Export Plug-In . SVG Version: 6.00 Build 0)  -->
<svg version="1.1" id="Capa_1" xmlns="http://www.w3.org/2000/svg" xmlns:xlink="http://www.w3.org/1999/xlink" x="0px" y="0px"
	 viewBox="0 0 17 17" style="enable-background:new 0 0 17 17;" xml:space="preserve">
<style type="text/css">
	.st0{fill:#363949;}
</style>
<g>
	<path class="st0" d="M2.2,0h12.6C16,0,17,0.9,17,2.2v12.6c0,1.3-1,2.2-2.2,2.2H2.2C1,17,0,16.1,0,14.8V2.2C0,0.9,1,0,2.2,0L2.2,0z
		 M12.4,1.9c-0.4,0-0.8,0.3-0.8,0.8v1.8c0,0.4,0.3,0.8,0.8,0.8h1.9c0.4,0,0.8-0.3,0.8-0.8V2.7c0-0.4-0.3-0.8-0.8-0.8H12.4L12.4,1.9z
		 M15.1,7.2h-1.5c0.1,0.5,0.2,1,0.2,1.5c0,2.8-2.4,5.1-5.3,5.1c-2.9,0-5.3-2.3-5.3-5.1c0-0.5,0.1-1,0.2-1.5H1.9v7.2
		c0,0.4,0.3,0.7,0.7,0.7h11.8c0.4,0,0.7-0.3,0.7-0.7L15.1,7.2L15.1,7.2z M8.5,5.2c-1.9,0-3.4,1.5-3.4,3.3s1.5,3.3,3.4,3.3
		c1.9,0,3.4-1.5,3.4-3.3S10.4,5.2,8.5,5.2z"/>
</g>
</svg>
