<?xml version="1.0" encoding="utf-8"?>
<!-- Generator: Adobe Illustrator 22.1.0, SVG Export Plug-In . SVG Version: 6.00 Build 0)  -->
<svg version="1.1" id="Capa_1" xmlns="http://www.w3.org/2000/svg" xmlns:xlink="http://www.w3.org/1999/xlink" x="0px" y="0px"
	 viewBox="0 0 132 40" style="enable-background:new 0 0 132 40;" xml:space="preserve">
<style type="text/css">
	.st0{fill:url(#SVGID_2_);}
	.st1{fill:#626261;}
	.st2{fill:#C62C3D;}
</style>
<g id="G">
	<g>
		
			<linearGradient id="SVGID_2_" gradientUnits="userSpaceOnUse" x1="3.9736" y1="93.6885" x2="32.286" y2="117.4455" gradientTransform="matrix(1 0 0 1 0 -86)">
			<stop  offset="0" style="stop-color:#F8C36C"/>
			<stop  offset="0.1179" style="stop-color:#F7BC69"/>
			<stop  offset="0.3203" style="stop-color:#F3A761"/>
			<stop  offset="0.5828" style="stop-color:#EF8254"/>
			<stop  offset="0.8921" style="stop-color:#E84643"/>
			<stop  offset="1" style="stop-color:#E62C3D"/>
		</linearGradient>
		<path id="SVGID_1_" class="st0" d="M16.1,20c0-1.3,1-2.4,2.2-2.5h3.4c3.3,0,6,2.8,6,6.3c0,0.4,0,0.7-0.1,1.1
			c-1.5-1.6-3.5-2.5-5.7-2.5h-0.1h-3.4C17.1,22.5,16.1,21.4,16.1,20 M2.3,20c0-9.7,7.4-17.6,16.6-17.6c2.6,0,5.1,0.6,7.4,1.9
			l0.1,0.1c0.8,0.4,1.3,1.3,1.3,2.2c0,1.4-1.1,2.5-2.3,2.5c-0.4,0-0.7-0.1-1.1-0.3l0,0l0,0c-1.7-0.9-3.5-1.4-5.4-1.4
			C12.3,7.4,7,13,7,20c0,3.1,1.1,6.1,3.1,8.4c0,0,0,0,0.1,0.1c2.5,2.9,6,4.6,9.7,4.6c1.9,0,3.8-0.4,5.5-1.3c0,0,0,0,0.1,0
			c0.9-0.4,1.6-1,2.3-1.8c0.1,0.3,0.1,0.7,0.1,1c0,2.7-1.7,5.1-4,5.8c0,0,0,0-0.1,0c-1.5,0.5-3.1,0.7-4.8,0.7
			C9.7,37.6,2.3,29.7,2.3,20 M0,20c0,11,8.5,20,18.8,20c1.8,0,3.6-0.3,5.3-0.8c0,0,0,0,0.1,0c3.4-1.1,5.7-4.4,5.7-8.2
			c0-1.2-0.2-2.4-0.7-3.5c0.5-1.1,0.7-2.4,0.7-3.6c0-4.7-3.6-8.6-8-8.7h-0.1h-3.4h-0.1c-2.5,0-4.6,2.2-4.6,4.9
			c0,2.6,1.9,4.7,4.3,4.9c0.1,0,0.1,0,0.2,0h3.6h0.1c1.9,0,3.6,1,4.6,2.6c-0.6,0.9-1.4,1.6-2.3,2.1l0,0c-1.4,0.7-2.9,1-4.5,1
			c-3,0-5.9-1.4-8-3.7c0,0,0,0-0.1-0.1C10.1,25,9.2,22.5,9.2,20c0-5.6,4.3-10.2,9.6-10.2c1.5,0,3,0.4,4.4,1.1l0,0
			c0.7,0.4,1.4,0.5,2.1,0.5c2.5,0,4.6-2.2,4.6-4.9c0-1.8-0.9-3.4-2.3-4.2l-0.1-0.1C24.9,0.8,21.9,0,18.8,0C8.5,0,0,9,0,20"/>
	</g>
</g>
<g>
	<path class="st1" d="M82.4,17.6h-0.8c-0.3,0-0.5,0.2-0.5,0.5V25c0,2-1.6,3.6-3.6,3.6S73.9,27,73.9,25v-6.9c0-0.3-0.2-0.5-0.5-0.5
		h-0.8c-0.3,0-0.5,0.2-0.5,0.5V25c0,3,2.5,5.5,5.5,5.5s5.5-2.5,5.5-5.5v-6.9C82.9,17.9,82.7,17.6,82.4,17.6z"/>
	<path class="st1" d="M105.2,17.6c-3,0-5.5,2.5-5.5,5.5V30c0,0.3,0.2,0.5,0.5,0.5h0.8c0.3,0,0.5-0.2,0.5-0.5v-6.9
		c0-2,1.6-3.6,3.6-3.6s3.6,1.6,3.6,3.6V30c0,0.3,0.2,0.5,0.5,0.5h0.8c0.3,0,0.5-0.2,0.5-0.5v-6.9C110.7,20.1,108.2,17.6,105.2,17.6z
		"/>
	<path class="st1" d="M69.4,17.7H69c-2.9,0-5.3,2.4-5.3,5.3v7.1c0,0.3,0.2,0.5,0.5,0.5H65c0.3,0,0.5-0.2,0.5-0.5V23
		c0-1.9,1.5-3.4,3.4-3.4h0.4c0.3,0,0.5-0.2,0.5-0.5v-0.8C69.9,17.9,69.7,17.7,69.4,17.7z"/>
	<path class="st1" d="M90.7,28.7h-0.5h-0.1c-1.1,0-2-0.9-2-2v-4.5v-2.7h2.4c0.3,0,0.5-0.2,0.5-0.5v-0.8c0-0.3-0.2-0.5-0.5-0.5h-0.3
		h-2.1l0,0v-2.6c0-0.3-0.2-0.5-0.5-0.5h-0.8c-0.3,0-0.5,0.2-0.5,0.5v7.1v4.5c0,2.2,1.8,3.9,3.9,3.9h0.6c0.3,0,0.5-0.2,0.5-0.5v-0.8
		C91.3,29,91,28.7,90.7,28.7z"/>
	<path class="st1" d="M131.4,28.7h-0.5h-0.1c-1.1,0-2-0.9-2-2v-4.5v-2.7h2.4c0.3,0,0.5-0.2,0.5-0.5v-0.8c0-0.3-0.2-0.5-0.5-0.5h-0.3
		h-2.1l0,0v-2.6c0-0.3-0.2-0.5-0.5-0.5h-0.8c-0.3,0-0.5,0.2-0.5,0.5v7.1v4.5c0,2.2,1.8,3.9,3.9,3.9h0.6c0.3,0,0.5-0.2,0.5-0.5v-0.8
		C131.9,29,131.7,28.7,131.4,28.7z"/>
	<path class="st1" d="M94.5,15c0.6,0,1.2-0.5,1.2-1.2s-0.5-1.2-1.2-1.2s-1.2,0.5-1.2,1.2S93.8,15,94.5,15z"/>
	<path class="st1" d="M97.7,28.7h-0.2h-0.1c-1.1,0-2-0.9-2-2v-4.5v-4.1c0-0.3-0.2-0.5-0.5-0.5h-0.8c-0.3,0-0.5,0.2-0.5,0.5v4v4.5
		c0,2.2,1.8,3.9,3.9,3.9h0.3c0.3,0,0.5-0.2,0.5-0.5v-0.8C98.2,29,98,28.7,97.7,28.7z"/>
	<path class="st1" d="M60.2,12.2L60.2,12.2c-1.8-1.6-4.3-2.6-6.9-2.6c-5.8,0-10.5,4.7-10.5,10.5s4.7,10.5,10.5,10.5h0.1h6.5
		c0.3,0,0.5-0.2,0.5-0.5V20c0-0.3-0.2-0.5-0.5-0.5H52c-0.3,0-0.5,0.2-0.5,0.5v0.8c0,0.3,0.2,0.5,0.5,0.5h6.5v7.4h-5.3l0,0
		c-4.8,0-8.7-3.9-8.7-8.7s3.9-8.7,8.7-8.7c2.4,0,4.6,1,6.2,2.6l0,0l0,0c0.1,0.1,0.2,0.2,0.4,0.2c0.3,0,0.5-0.2,0.5-0.5v-1.1
		C60.4,12.4,60.3,12.3,60.2,12.2L60.2,12.2z"/>
	<path class="st1" d="M124,21.4c0-2.1-1.7-3.7-3.7-3.7h-1.5c-2.6,0-4.7,1.9-5.1,4.3l0,0c-0.4,1.9,0,4.3,0,4.3
		c0.4,2.4,2.6,4.3,5.1,4.3h4.7c0.3,0,0.5-0.2,0.5-0.5v-0.8c0-0.3-0.2-0.5-0.5-0.5h-1.7H119c-2,0-3.7-1.6-3.7-3.6l0,0h5
		C122.3,25.1,124,23.5,124,21.4z M115.2,23.4c0-0.5,0.2-1.2,0.2-1.2c0.3-1.5,1.7-2.7,3.3-2.7h1.5c1.1,0,2,0.9,2,2s-0.9,2-2,2
		L115.2,23.4L115.2,23.4z"/>
</g>
<g>
	<path class="st2" d="M47,35.2l1.4,3.5l1.4-3.5h0.7v4.3H50v-1.7L50,36l-1.4,3.5h-0.4L46.8,36l0.1,1.8v1.7h-0.6v-4.3H47z"/>
	<path class="st2" d="M56,37.5c0,0.4-0.1,0.8-0.2,1.1s-0.3,0.5-0.6,0.7s-0.6,0.2-0.9,0.2c-0.3,0-0.6-0.1-0.9-0.2
		c-0.3-0.2-0.5-0.4-0.6-0.7s-0.2-0.7-0.2-1.1v-0.3c0-0.4,0.1-0.8,0.2-1.1s0.3-0.6,0.6-0.7c0.3-0.2,0.6-0.3,0.9-0.3
		c0.3,0,0.6,0.1,0.9,0.2s0.5,0.4,0.6,0.7c0.1,0.3,0.2,0.7,0.2,1.1V37.5z M55.5,37.2c0-0.5-0.1-0.9-0.3-1.2c-0.2-0.3-0.5-0.4-0.9-0.4
		c-0.4,0-0.6,0.1-0.8,0.4c-0.2,0.3-0.3,0.6-0.3,1.1v0.3c0,0.5,0.1,0.9,0.3,1.2c0.2,0.3,0.5,0.4,0.9,0.4c0.4,0,0.6-0.1,0.8-0.4
		c0.2-0.3,0.3-0.6,0.3-1.1V37.2z"/>
	<path class="st2" d="M59.4,38.7l1.2-3.5h0.6l-1.6,4.3h-0.5l-1.6-4.3h0.6L59.4,38.7z"/>
	<path class="st2" d="M65.4,37.5h-1.8V39h2.1v0.5H63v-4.3h2.7v0.5h-2.1v1.4h1.8V37.5z"/>
	<path class="st2" d="M68.4,35.2l1.4,3.5l1.4-3.5h0.7v4.3h-0.6v-1.7l0.1-1.8L70,39.5h-0.4L68.1,36l0.1,1.8v1.7h-0.6v-4.3H68.4z"/>
	<path class="st2" d="M77.4,37.5c0,0.4-0.1,0.8-0.2,1.1s-0.3,0.5-0.6,0.7s-0.6,0.2-0.9,0.2c-0.3,0-0.6-0.1-0.9-0.2
		c-0.3-0.2-0.5-0.4-0.6-0.7s-0.2-0.7-0.2-1.1v-0.3c0-0.4,0.1-0.8,0.2-1.1s0.3-0.6,0.6-0.7c0.3-0.2,0.6-0.3,0.9-0.3
		c0.3,0,0.6,0.1,0.9,0.2s0.5,0.4,0.6,0.7c0.1,0.3,0.2,0.7,0.2,1.1V37.5z M76.8,37.2c0-0.5-0.1-0.9-0.3-1.2c-0.2-0.3-0.5-0.4-0.9-0.4
		c-0.4,0-0.6,0.1-0.8,0.4c-0.2,0.3-0.3,0.6-0.3,1.1v0.3c0,0.5,0.1,0.9,0.3,1.2c0.2,0.3,0.5,0.4,0.9,0.4c0.4,0,0.6-0.1,0.8-0.4
		c0.2-0.3,0.3-0.6,0.3-1.1V37.2z"/>
	<path class="st2" d="M80.7,37.6c-0.5-0.1-0.8-0.3-1.1-0.5c-0.2-0.2-0.3-0.5-0.3-0.7c0-0.3,0.1-0.6,0.4-0.8c0.3-0.2,0.6-0.3,1-0.3
		c0.3,0,0.6,0.1,0.8,0.2s0.4,0.3,0.5,0.5s0.2,0.4,0.2,0.7h-0.6c0-0.3-0.1-0.5-0.2-0.6c-0.2-0.1-0.4-0.2-0.7-0.2
		c-0.3,0-0.5,0.1-0.6,0.2s-0.2,0.3-0.2,0.5c0,0.2,0.1,0.3,0.2,0.4c0.1,0.1,0.4,0.2,0.8,0.3s0.6,0.2,0.8,0.3c0.2,0.1,0.3,0.3,0.4,0.4
		s0.1,0.3,0.1,0.6c0,0.3-0.1,0.6-0.4,0.8c-0.3,0.2-0.6,0.3-1.1,0.3c-0.3,0-0.6-0.1-0.8-0.2c-0.3-0.1-0.4-0.3-0.6-0.5
		s-0.2-0.4-0.2-0.7h0.6c0,0.3,0.1,0.5,0.3,0.6c0.2,0.1,0.4,0.2,0.8,0.2c0.3,0,0.5-0.1,0.7-0.2s0.2-0.3,0.2-0.5s-0.1-0.4-0.2-0.5
		C81.3,37.8,81,37.7,80.7,37.6z"/>
	<path class="st2" d="M89.7,35.7h-1.4v3.8h-0.6v-3.8h-1.4v-0.5h3.3V35.7z"/>
	<path class="st2" d="M94.5,35.2v2.9c0,0.4-0.1,0.7-0.4,1s-0.6,0.4-1,0.4l-0.1,0c-0.5,0-0.8-0.1-1.1-0.4s-0.4-0.6-0.4-1v-2.9H92v2.9
		c0,0.3,0.1,0.5,0.3,0.7c0.2,0.2,0.4,0.3,0.7,0.3c0.3,0,0.6-0.1,0.7-0.3s0.3-0.4,0.3-0.7v-2.9H94.5z"/>
	<path class="st2" d="M97.9,37.6c-0.5-0.1-0.8-0.3-1.1-0.5c-0.2-0.2-0.3-0.5-0.3-0.7c0-0.3,0.1-0.6,0.4-0.8c0.3-0.2,0.6-0.3,1-0.3
		c0.3,0,0.6,0.1,0.8,0.2s0.4,0.3,0.5,0.5s0.2,0.4,0.2,0.7h-0.6c0-0.3-0.1-0.5-0.2-0.6c-0.2-0.1-0.4-0.2-0.7-0.2
		c-0.3,0-0.5,0.1-0.6,0.2S97,36.1,97,36.3c0,0.2,0.1,0.3,0.2,0.4c0.1,0.1,0.4,0.2,0.8,0.3s0.6,0.2,0.8,0.3c0.2,0.1,0.3,0.3,0.4,0.4
		s0.1,0.3,0.1,0.6c0,0.3-0.1,0.6-0.4,0.8c-0.3,0.2-0.6,0.3-1.1,0.3c-0.3,0-0.6-0.1-0.8-0.2c-0.3-0.1-0.4-0.3-0.6-0.5
		s-0.2-0.4-0.2-0.7h0.6c0,0.3,0.1,0.5,0.3,0.6c0.2,0.1,0.4,0.2,0.8,0.2c0.3,0,0.5-0.1,0.7-0.2s0.2-0.3,0.2-0.5s-0.1-0.4-0.2-0.5
		C98.5,37.8,98.2,37.7,97.9,37.6z"/>
	<path class="st2" d="M105.5,38.7l1.2-3.5h0.6l-1.6,4.3h-0.5l-1.6-4.3h0.6L105.5,38.7z"/>
	<path class="st2" d="M111.5,37.5h-1.8V39h2.1v0.5h-2.7v-4.3h2.7v0.5h-2.1v1.4h1.8V37.5z"/>
	<path class="st2" d="M116.9,39.5h-0.6l-2.1-3.3v3.3h-0.6v-4.3h0.6l2.2,3.3v-3.3h0.6V39.5z"/>
	<path class="st2" d="M122,35.7h-1.4v3.8h-0.6v-3.8h-1.4v-0.5h3.3V35.7z"/>
	<path class="st2" d="M126,38.4h-1.8l-0.4,1.1h-0.6l1.6-4.3h0.5l1.6,4.3h-0.6L126,38.4z M124.3,37.9h1.5l-0.7-2L124.3,37.9z"/>
	<path class="st2" d="M130,37.6c-0.5-0.1-0.8-0.3-1.1-0.5c-0.2-0.2-0.3-0.5-0.3-0.7c0-0.3,0.1-0.6,0.4-0.8c0.3-0.2,0.6-0.3,1-0.3
		c0.3,0,0.6,0.1,0.8,0.2c0.2,0.1,0.4,0.3,0.5,0.5c0.1,0.2,0.2,0.4,0.2,0.7H131c0-0.3-0.1-0.5-0.2-0.6c-0.2-0.1-0.4-0.2-0.7-0.2
		c-0.3,0-0.5,0.1-0.6,0.2c-0.2,0.1-0.2,0.3-0.2,0.5c0,0.2,0.1,0.3,0.2,0.4c0.1,0.1,0.4,0.2,0.8,0.3c0.4,0.1,0.6,0.2,0.8,0.3
		c0.2,0.1,0.3,0.3,0.4,0.4c0.1,0.2,0.1,0.3,0.1,0.6c0,0.3-0.1,0.6-0.4,0.8c-0.3,0.2-0.6,0.3-1.1,0.3c-0.3,0-0.6-0.1-0.8-0.2
		c-0.3-0.1-0.5-0.3-0.6-0.5c-0.1-0.2-0.2-0.4-0.2-0.7h0.6c0,0.3,0.1,0.5,0.3,0.6c0.2,0.1,0.4,0.2,0.8,0.2c0.3,0,0.5-0.1,0.7-0.2
		s0.2-0.3,0.2-0.5s-0.1-0.4-0.2-0.5C130.6,37.8,130.4,37.7,130,37.6z"/>
</g>
</svg>
