<?xml version="1.0" encoding="utf-8"?>
<!-- Generator: Adobe Illustrator 22.1.0, SVG Export Plug-In . SVG Version: 6.00 Build 0)  -->
<svg version="1.1" id="Capa_1" xmlns="http://www.w3.org/2000/svg" xmlns:xlink="http://www.w3.org/1999/xlink" x="0px" y="0px"
	 viewBox="0 0 17 17" style="enable-background:new 0 0 17 17;" xml:space="preserve">
<style type="text/css">
	.st0{fill:#363949;}
</style>
<title>ico</title>
<path class="st0" d="M8.5,0L8.5,0C3.8,0,0,3.8,0,8.5c0,1.8,0.6,3.5,1.6,5l-1.1,3.2l3.3-1c1.4,0.9,3,1.4,4.7,1.4
	c4.7,0,8.5-3.8,8.5-8.5S13.2,0,8.5,0z M13.5,12c-0.2,0.6-1,1.1-1.7,1.2c-0.4,0.1-1,0.2-3-0.6c-2.5-1-4.1-3.6-4.2-3.7
	c-0.1-0.2-1-1.3-1-2.6c0-0.8,0.3-1.5,0.9-2.1C4.7,4,5,3.9,5.3,3.9c0.1,0,0.2,0,0.3,0c0.2,0,0.4,0,0.5,0.4C6.3,4.8,6.8,6,6.9,6.2
	C7,6.3,7,6.5,6.9,6.6C6.9,6.8,6.8,6.9,6.7,7C6.5,7.2,6.4,7.3,6.3,7.4C6.2,7.6,6.1,7.7,6.2,8C6.6,8.6,7,9.2,7.6,9.7
	c0.6,0.5,1.3,0.9,2,1.2c0.2,0.1,0.4,0.1,0.6-0.1c0.2-0.3,0.5-0.6,0.7-0.9c0.1-0.2,0.4-0.3,0.6-0.2c0.2,0.1,1.4,0.7,1.7,0.8
	c0.2,0.1,0.4,0.2,0.5,0.3C13.7,10.9,13.7,11.4,13.5,12L13.5,12z"/>
</svg>
