<?xml version="1.0" encoding="utf-8"?>
<!-- Generator: Adobe Illustrator 22.1.0, SVG Export Plug-In . SVG Version: 6.00 Build 0)  -->
<svg version="1.1" id="Layer_1" xmlns="http://www.w3.org/2000/svg" xmlns:xlink="http://www.w3.org/1999/xlink" x="0px" y="0px"
	 viewBox="0 0 17 17" style="enable-background:new 0 0 17 17;" xml:space="preserve">
<style type="text/css">
	.st0{fill:#363949;}
</style>
<path class="st0" d="M14.7,0H2.3C1,0,0,1,0,2.3v12.4C0,16,1,17,2.3,17h6.1l0-6.1H6.8c-0.2,0-0.4-0.2-0.4-0.4l0-2
	c0-0.2,0.2-0.4,0.4-0.4h1.6V6.3c0-2.2,1.3-3.4,3.3-3.4h1.6c0.2,0,0.4,0.2,0.4,0.4V5c0,0.2-0.2,0.4-0.4,0.4l-1,0
	c-1.1,0-1.3,0.5-1.3,1.2v1.6h2.3c0.2,0,0.4,0.2,0.4,0.4l-0.2,2c0,0.2-0.2,0.3-0.4,0.3h-2.1l0,6.1h3.6c1.3,0,2.3-1,2.3-2.3V2.3
	C17,1,16,0,14.7,0z"/>
</svg>
